# xmcd
#
# Track frame offsets: 
#        150
#        12735
#        23912
#        41607
#        59960
#        76495
#        101109
#        116685
#        134196
#        147715
#        167984
#        190732
#        208887
#        228412
#        248980
#
# Disc length: 3516 seconds
#
# Revision: 1
# Processed by: cddbd v1.5.2PL0 Copyright (c) Steve Scherf et al.
# Submitted via: ExactAudioCopy v0.95a5
#
DISCID=f20dba0f
DTITLE=Various Artist - Antologia polskiego bluesa
DYEAR=2008
DGENRE=
TTITLE0=Marzena Tarnowska - Polski blues
TTITLE1=Elzbieta Mielczarek - Easy Money
TTITLE2=Aneta Sumara - Puste slowa
TTITLE3=Martyna Jakubowicz - Blues 4 rano
TTITLE4=Karolina Cygonek - Galaktyka marzen
TTITLE5=Edyta Zaitz - Me Be
TTITLE6=Magda Psikorczyk - All Of Me
TTITLE7=Anika - Voodoo Chile
TTITLE8=Joanna Karkoszka - Z pewnoscia nie ty
TTITLE9=Aleksandra Wietczak - Koniec z koncem
TTITLE10=Ida Zalewska - Careless Love
TTITLE11=Ola Lysiak - Droga
TTITLE12=Anna Heron - Nie pytaj, ktora godzina
TTITLE13=Joanna Pilarska - Jest taki swiat
TTITLE14=Mira Kubasinska - Czy warto bylo
EXTD=
EXTT0=
EXTT1=
EXTT2=
EXTT3=
EXTT4=
EXTT5=
EXTT6=
EXTT7=
EXTT8=
EXTT9=
EXTT10=
EXTT11=
EXTT12=
EXTT13=
EXTT14=
PLAYORDER=
